/* XPM */
static char * left_active_xpm[] = {
"5 21 3 1",
" 	c None",
".	c #444444",
"#	c #484848",
"#....",
"#....",
"#....",
"#....",
"#....",
"#....",
"#....",
"#....",
"#....",
"#....",
"#....",
"#....",
"#....",
"#....",
"#....",
"#....",
"#....",
"#....",
"#....",
"#....",
"#...."};
